<svg xmlns="http://www.w3.org/2000/svg" version="1.1" xmlns:xlink="http://www.w3.org/1999/xlink" width="512" height="512" x="0" y="0" viewBox="0 0 612.02 612.02" style="enable-background:new 0 0 512 512" xml:space="preserve" class=""><g><path d="M596.96 269.674 342.381 15.094c-20.079-20.079-52.644-20.079-72.723 0s-20.079 52.644 0 72.723L487.852 306.01 269.658 524.202c-20.079 20.079-20.079 52.644 0 72.723s52.644 20.079 72.723 0L596.96 342.346c20.079-20.029 20.079-52.593 0-72.672zm-306.102-15.416L88.744 41.238c-20.309-21.378-53.204-21.378-73.513 0s-20.309 56.058 0 77.462l165.371 174.289L15.231 467.278c-20.309 21.379-20.309 56.083 0 77.462s53.204 21.379 73.513 0l202.114-213.02c20.309-21.378 20.309-56.058 0-77.462z" fill="#ffffff" opacity="1" data-original="#000000" class=""></path></g></svg>