<svg xmlns="http://www.w3.org/2000/svg" id="Layer_1" data-name="Layer 1" viewBox="0 0 24 24"><path d="m4.5,8c-.827,0-1.5.673-1.5,1.5v1c0,.827.673,1.5,1.5,1.5h5c.827,0,1.5-.673,1.5-1.5v-1c0-.827-.673-1.5-1.5-1.5h-5Zm5.5,1.5v1c0,.275-.225.5-.5.5h-5c-.275,0-.5-.225-.5-.5v-1c0-.275.225-.5.5-.5h5c.275,0,.5.225.5.5Zm0,5c0,.276-.224.5-.5.5h-1c-.276,0-.5-.224-.5-.5s.224-.5.5-.5h1c.276,0,.5.224.5.5Zm0,3c0,.276-.224.5-.5.5h-1c-.276,0-.5-.224-.5-.5s.224-.5.5-.5h1c.276,0,.5.224.5.5Zm-4-3c0,.276-.224.5-.5.5h-1c-.276,0-.5-.224-.5-.5s.224-.5.5-.5h1c.276,0,.5.224.5.5Zm0,3c0,.276-.224.5-.5.5h-1c-.276,0-.5-.224-.5-.5s.224-.5.5-.5h1c.276,0,.5.224.5.5Zm4,3c0,.276-.224.5-.5.5h-1c-.276,0-.5-.224-.5-.5s.224-.5.5-.5h1c.276,0,.5.224.5.5Zm-4,0c0,.276-.224.5-.5.5h-1c-.276,0-.5-.224-.5-.5s.224-.5.5-.5h1c.276,0,.5.224.5.5ZM17.487,0H7.5C4.468,0,2,2.468,2,5.5c0,.018.008.033.01.051-1.195.692-2.01,1.971-2.01,3.449v11c0,2.206,1.794,4,4,4h6c2.206,0,4-1.794,4-4v-11c0-1.453-.786-2.714-1.947-3.415,0,0,0,0,0-.001.45-2.656,2.735-4.584,5.434-4.584,3.04,0,5.513,2.473,5.513,5.513v8.997l-2.036-1.501c-.171-.128-.405-.131-.582-.008l-2.549,1.771-1.048-.729c-.226-.156-.538-.103-.695.125-.158.227-.103.538.125.695l1.333.928c.17.119.398.119.57,0l2.54-1.766,2.545,1.876c.088.064.192.098.297.098.077,0,.154-.018.226-.054.168-.085.274-.258.274-.446V6.513c0-3.591-2.922-6.513-6.513-6.513Zm-4.487,9v11c0,1.654-1.346,3-3,3h-6c-1.654,0-3-1.346-3-3v-11c0-1.654,1.346-3,3-3h6c1.654,0,3,1.346,3,3Zm-1.871-3.818c-.36-.107-.734-.182-1.129-.182h-6c-.334,0-.653.053-.963.13.192-2.306,2.108-4.13,4.463-4.13h6.535c-1.464.915-2.535,2.397-2.906,4.182Z"/></svg>